<?xml version="1.0" encoding="UTF-8" standalone="no"?>
<!-- Created with Inkscape (http://www.inkscape.org/) -->

<svg
   width="6.7938356mm"
   height="8.0922709mm"
   viewBox="0 0 6.7938356 8.0922709"
   version="1.1"
   id="svg1"
   inkscape:version="1.3.2 (091e20e, 2023-11-25, custom)"
   sodipodi:docname="webdesignconcours_accueil.svg"
   xml:space="preserve"
   xmlns:inkscape="http://www.inkscape.org/namespaces/inkscape"
   xmlns:sodipodi="http://sodipodi.sourceforge.net/DTD/sodipodi-0.dtd"
   xmlns="http://www.w3.org/2000/svg"
   xmlns:svg="http://www.w3.org/2000/svg"><sodipodi:namedview
     id="namedview1"
     pagecolor="#ffffff"
     bordercolor="#000000"
     borderopacity="0.25"
     inkscape:showpageshadow="2"
     inkscape:pageopacity="0.0"
     inkscape:pagecheckerboard="0"
     inkscape:deskcolor="#d1d1d1"
     inkscape:document-units="mm"
     inkscape:zoom="0.17705703"
     inkscape:cx="-3258.837"
     inkscape:cy="-962.96657"
     inkscape:window-width="1920"
     inkscape:window-height="991"
     inkscape:window-x="-9"
     inkscape:window-y="-9"
     inkscape:window-maximized="1"
     inkscape:current-layer="layer1"
     showguides="false"><sodipodi:guide
       position="-458.57119,359.18592"
       orientation="1,0"
       id="guide158"
       inkscape:locked="false" /></sodipodi:namedview><defs
     id="defs1" /><g
     inkscape:label="Calque 1"
     inkscape:groupmode="layer"
     id="layer1"
     transform="translate(843.37221,283.75372)"><g
       id="g51-2-5-11-5-8"
       transform="matrix(0.29630124,0,0,0.29630124,-857.44064,-396.78968)"
       style="fill:#ffffff;fill-opacity:1;stroke-width:0.892958">
		<path
   style="clip-rule:evenodd;fill:#ffffff;fill-opacity:1;fill-rule:evenodd;stroke-width:0.892958"
   d="m 70.408,390.091 h -4.305 l -2.589,-8.601 -1.929,0.541 2.255,8.06 h -9.466 l 2.367,-8.06 -2.05,-0.541 -2.469,8.601 H 47.48 v 2.898 h 22.929 v -2.898 z m -4.63,18.71 c 2.264,0 4.09,-1.835 4.09,-4.201 0,-2.246 -1.827,-4.082 -4.09,-4.082 -2.264,0 -4.193,1.835 -4.193,4.082 0,2.366 1.929,4.201 4.193,4.201 z m -2.796,-4.63 h 2.255 v -2.255 h 0.969 v 2.255 h 2.161 v 0.969 h -2.161 v 2.152 h -0.969 v -2.152 h -2.255 z m 2.581,-4.94 c 1.08,0 2.041,0.317 2.804,0.858 l 0.96,-5.376 H 48.56 l 2.152,11.936 H 60.83 c -0.326,-0.643 -0.54,-1.397 -0.54,-2.152 0,-2.796 2.366,-5.266 5.273,-5.266 z"
   id="path51-7-0-2-8-2" />
	</g></g></svg>
