<?xml version="1.0" encoding="UTF-8" standalone="no"?>
<!-- Created with Inkscape (http://www.inkscape.org/) -->

<svg
   width="8.4104681mm"
   height="8.4107275mm"
   viewBox="0 0 8.4104681 8.4107275"
   version="1.1"
   id="svg1"
   inkscape:version="1.3.2 (091e20e, 2023-11-25, custom)"
   sodipodi:docname="webdesignconcours_accueil.svg"
   xml:space="preserve"
   xmlns:inkscape="http://www.inkscape.org/namespaces/inkscape"
   xmlns:sodipodi="http://sodipodi.sourceforge.net/DTD/sodipodi-0.dtd"
   xmlns="http://www.w3.org/2000/svg"
   xmlns:svg="http://www.w3.org/2000/svg"><sodipodi:namedview
     id="namedview1"
     pagecolor="#ffffff"
     bordercolor="#000000"
     borderopacity="0.25"
     inkscape:showpageshadow="2"
     inkscape:pageopacity="0.0"
     inkscape:pagecheckerboard="0"
     inkscape:deskcolor="#d1d1d1"
     inkscape:document-units="mm"
     inkscape:zoom="0.088528514"
     inkscape:cx="-6461.1951"
     inkscape:cy="-739.87461"
     inkscape:window-width="1920"
     inkscape:window-height="991"
     inkscape:window-x="-9"
     inkscape:window-y="-9"
     inkscape:window-maximized="1"
     inkscape:current-layer="layer1"
     showguides="false"><sodipodi:guide
       position="-398.79781,-304.02323"
       orientation="1,0"
       id="guide158"
       inkscape:locked="false" /></sodipodi:namedview><defs
     id="defs1" /><g
     inkscape:label="Calque 1"
     inkscape:groupmode="layer"
     id="layer1"
     transform="translate(903.14559,946.96286)"><g
       id="g132"
       transform="translate(1.9525598)"><g
         id="g32-9-4"
         transform="matrix(0.26458333,0,0,0.26458333,-1028.0117,-1092.3421)"
         style="fill:#000000;fill-opacity:1">
		<path
   style="clip-rule:evenodd;fill:#000000;fill-opacity:1;fill-rule:evenodd;stroke-width:1"
   d="m 479.04737,549.50446 c -7.6491,0.63005 -13.79003,6.76167 -14.41892,14.27101 -0.50077,5.632 1.62695,9.88512 4.51283,12.90143 3.01631,2.87656 7.15064,5.00312 12.91192,4.50351 4.01437,-0.25039 7.27059,-2.12656 9.65686,-4.50351 2.37695,-2.25699 4.00389,-5.51205 4.63278,-9.51711 v -3.50544 c -0.62889,-4.13433 -2.38627,-7.25895 -4.63278,-9.50663 -2.75661,-2.75544 -6.90026,-5.01244 -12.66269,-4.64326 z m -0.12928,11.89406 c 0,-0.74884 0.74884,-1.37889 1.37773,-1.49768 1.37888,-0.11995 2.13704,1.11802 2.50621,2.12656 0.87811,-0.24922 1.63743,-0.75 2.50622,-1.00854 -0.36917,-1.99729 -1.87733,-3.12462 -3.75583,-3.61376 v -1.51863 h -2.00661 v 1.63742 c -3.8851,0.11879 -5.0136,5.13239 -2.7566,7.38007 1.49767,1.50816 5.39326,1.62695 5.64248,3.25506 0.49962,2.00777 -2.38743,2.74613 -3.76398,1.37889 -0.37966,-0.49962 -0.37966,-1.00855 -0.61957,-1.7469 -1.00738,0.23874 -1.88665,0.6184 -2.8952,0.73835 0.5101,2.37695 2.00777,3.89559 4.39404,4.39287 v 1.87734 h 2.0066 c 0,-0.62889 -0.24922,-1.62811 0,-2.13704 4.38472,-0.11879 5.39327,-5.63201 2.88588,-7.75857 -1.50699,-1.36957 -5.52137,-1.62811 -5.52137,-3.50544 z m 3.63472,16.39756 c -7.76904,1.37772 -15.2877,-4.62462 -14.65882,-13.76091 0.24923,-2.37695 1.24729,-4.13433 1.87734,-5.26283 1.87617,-2.88587 4.63394,-5.38278 9.27604,-5.88239 3.63471,-0.37966 6.64171,0.61957 8.64831,2.12656 2.75661,1.87733 5.01361,4.88317 5.39326,9.0175 0.61841,7.62929 -4.51398,12.8828 -10.53613,13.76207 z"
   id="path32-5-1" />
	</g></g></g></svg>
