<?xml version="1.0" encoding="UTF-8" standalone="no"?>
<!-- Created with Inkscape (http://www.inkscape.org/) -->

<svg
   width="16.231825mm"
   height="16.231859mm"
   viewBox="0 0 16.231825 16.231859"
   version="1.1"
   id="svg1"
   inkscape:version="1.3.2 (091e20e, 2023-11-25, custom)"
   sodipodi:docname="webdesignconcours_accueil.svg"
   xml:space="preserve"
   xmlns:inkscape="http://www.inkscape.org/namespaces/inkscape"
   xmlns:sodipodi="http://sodipodi.sourceforge.net/DTD/sodipodi-0.dtd"
   xmlns="http://www.w3.org/2000/svg"
   xmlns:svg="http://www.w3.org/2000/svg"><sodipodi:namedview
     id="namedview1"
     pagecolor="#ffffff"
     bordercolor="#000000"
     borderopacity="0.25"
     inkscape:showpageshadow="2"
     inkscape:pageopacity="0.0"
     inkscape:pagecheckerboard="0"
     inkscape:deskcolor="#d1d1d1"
     inkscape:document-units="mm"
     inkscape:zoom="0.17705703"
     inkscape:cx="-3258.837"
     inkscape:cy="-962.96657"
     inkscape:window-width="1920"
     inkscape:window-height="991"
     inkscape:window-x="-9"
     inkscape:window-y="-9"
     inkscape:window-maximized="1"
     inkscape:current-layer="layer1"
     showguides="false"><sodipodi:guide
       position="-282.33845,1048.1959"
       orientation="1,0"
       id="guide158"
       inkscape:locked="false" /></sodipodi:namedview><defs
     id="defs1" /><g
     inkscape:label="Calque 1"
     inkscape:groupmode="layer"
     id="layer1"
     transform="translate(1019.6049,-405.25621)"><g
       style="fill:#d38d5f;fill-opacity:1;stroke-width:12.9129"
       id="g141"
       transform="matrix(0.01600775,0,0,0.01600775,-1019.669,405.19219)"><path
         d="m 511,4 c 138,0 155,1 209,3 53,2 90,11 123,24 34,13 62,30 90,58 28,28 45,56 58,90 13,33 22,70 24,123 2,54 3,71 3,209 0,138 -1,155 -3,209 -2,53 -11,90 -24,123 -13,34 -30,62 -58,90 -28,28 -56,45 -90,58 -33,13 -70,22 -123,24 -54,2 -71,3 -209,3 -138,0 -155,-1 -209,-3 -53,-2 -90,-11 -123,-24 C 145,978 117,961 89,933 61,905 44,877 31,843 18,810 9,773 7,720 5,666 4,649 4,511 4,373 5,356 7,302 9,249 18,212 31,179 44,145 61,117 89,89 117,61 145,44 179,31 212,18 249,9 302,7 356,5 373,4 511,4 Z m 0,66 c -144,0 -161,1 -217,3 -52,2 -81,12 -100,19 -49,20 -82,53 -102,102 -7,19 -17,48 -19,100 -2,56 -3,73 -3,217 0,144 1,161 3,217 2,52 12,81 19,100 20,49 53,82 102,102 19,7 48,17 100,19 56,2 73,3 217,3 144,0 161,-1 217,-3 52,-2 81,-12 100,-19 49,-20 82,-53 102,-102 7,-19 17,-48 19,-100 2,-56 3,-73 3,-217 0,-144 -1,-161 -3,-217 C 947,242 937,213 930,194 910,145 877,112 828,92 809,85 780,75 728,73 672,71 655,70 511,70 Z m 0,644 c 112,0 203,-91 203,-203 0,-112 -91,-203 -203,-203 -112,0 -203,91 -203,203 0,112 91,203 203,203 z m 0,-463 C 655,251 771,367 771,511 771,655 655,771 511,771 367,771 251,655 251,511 251,367 367,251 511,251 Z m 332,-10 c 0,34 -28,60 -62,60 -34,0 -60,-26 -60,-60 0,-34 26,-62 60,-62 34,0 62,28 62,62 z"
         id="path1"
         style="fill:#d38d5f;fill-opacity:1;stroke-width:12.9129" /></g></g></svg>
