<?xml version="1.0" encoding="UTF-8" standalone="no"?>
<!-- Created with Inkscape (http://www.inkscape.org/) -->

<svg
   width="7.2055678mm"
   height="8.131093mm"
   viewBox="0 0 7.2055678 8.131093"
   version="1.1"
   id="svg1"
   inkscape:version="1.3.2 (091e20e, 2023-11-25, custom)"
   sodipodi:docname="webdesignconcours_accueil.svg"
   xml:space="preserve"
   xmlns:inkscape="http://www.inkscape.org/namespaces/inkscape"
   xmlns:sodipodi="http://sodipodi.sourceforge.net/DTD/sodipodi-0.dtd"
   xmlns="http://www.w3.org/2000/svg"
   xmlns:svg="http://www.w3.org/2000/svg"><sodipodi:namedview
     id="namedview1"
     pagecolor="#ffffff"
     bordercolor="#000000"
     borderopacity="0.25"
     inkscape:showpageshadow="2"
     inkscape:pageopacity="0.0"
     inkscape:pagecheckerboard="0"
     inkscape:deskcolor="#d1d1d1"
     inkscape:document-units="mm"
     inkscape:zoom="0.088528514"
     inkscape:cx="-6461.1951"
     inkscape:cy="-739.87461"
     inkscape:window-width="1920"
     inkscape:window-height="991"
     inkscape:window-x="-9"
     inkscape:window-y="-9"
     inkscape:window-maximized="1"
     inkscape:current-layer="layer1"
     showguides="false"><sodipodi:guide
       position="-218.48402,-303.88346"
       orientation="1,0"
       id="guide158"
       inkscape:locked="false" /></sodipodi:namedview><defs
     id="defs1" /><g
     inkscape:label="Calque 1"
     inkscape:groupmode="layer"
     id="layer1"
     transform="translate(1083.4594,946.82309)"><g
       id="g134"
       transform="translate(0.37499586)"><g
         id="g68-9"
         transform="matrix(0.29662384,0,0,0.29662384,-1245.9069,-1045.1254)"
         style="fill:#000000;fill-opacity:1;stroke-width:0.891983">
		<path
   style="clip-rule:evenodd;fill:#000000;fill-opacity:1;fill-rule:evenodd;stroke-width:0.891983"
   d="m 560.989,347.714 c 0,0.034 0,0.074 0,0.128 0,0.096 0,0.2 -0.017,0.297 -0.119,1.144 -0.727,3.837 -2.251,3.484 -4.479,-1.026 -0.943,-7.81 -0.354,-7.521 0.089,2.229 2.453,1.987 2.621,3.619 v -0.007 z m -5.105,1.851 c -14.146,-6.025 -4.836,-10.765 -5.99,-13.153 3.036,1.124 4.292,1.632 4.513,4.635 1.587,-3.525 4.46,-6.237 2.992,-9.643 2.82,0.041 6.61,6.664 5.55,8.241 1.857,-2.163 1.357,-2.511 1.758,-4.507 5.134,5.77 3.653,10.485 -3.41,14.307 1.906,-4.683 -3.065,-3.274 -3.225,-7.087 -0.735,2.403 -2.983,3.892 -2.188,7.207 z m 4.158,2.387 0.218,-0.229 10.423,3.665 -0.914,0.97 -8.165,-2.883 4.537,4.793 -1.578,0.548 -6.026,-6.346 -1.501,-0.519 -0.223,-0.229 -10.422,3.665 0.91,0.97 8.165,-2.883 -4.532,4.793 1.578,0.548 6.024,-6.346 z"
   id="path67-7" />
	</g></g></g></svg>
